<svg width="50" height="36" viewBox="0 0 50 36" fill="none" xmlns="http://www.w3.org/2000/svg">
<path d="M24.6518 10.3149H28.2722M43.5452 31.7472H48.9995V23.1743M35.9086 31.7472H20.6361M12.9992 31.7472H7.54492V23.1743M28.2722 10.3149H38.0904L41.3631 13.5298M28.2722 10.3149V23.1743M48.9995 23.1743V21.0311L41.3631 13.5298M48.9995 23.1743H34.8176V13.5298H41.3631M34.8176 26.3891H31.5449" stroke="#666666" stroke-width="2" stroke-linecap="round" stroke-linejoin="round"/>
<path d="M18.4549 3.88519C14.5387 0.0382686 8.18929 0.0382686 4.27309 3.88519C0.356887 7.73212 0.356887 13.9692 4.27309 17.8161C8.18929 21.6631 14.5387 21.6631 18.4549 17.8161C22.3711 13.9692 22.3711 7.73212 18.4549 3.88519Z" stroke="#666666" stroke-width="2" stroke-linecap="round" stroke-linejoin="round"/>
<path d="M6.45312 8.50128C6.45312 11.9304 9.36221 15.6454 10.8168 17.0742C12.2713 15.6454 15.1804 11.9304 15.1804 8.50128C15.1804 5.07213 12.2713 4.21484 10.8168 4.21484C9.36221 4.21484 6.45312 5.07213 6.45312 8.50128Z" stroke="#666666" stroke-width="2" stroke-linecap="round" stroke-linejoin="round"/>
<path d="M42.4534 28.5321C40.9471 27.0525 38.505 27.0525 36.9988 28.5321C35.4926 30.0116 35.4926 32.4105 36.9988 33.8901C38.505 35.3697 40.9471 35.3697 42.4534 33.8901C43.9596 32.4105 43.9596 30.0116 42.4534 28.5321Z" stroke="#666666" stroke-width="2" stroke-linecap="round" stroke-linejoin="round"/>
<path d="M19.5452 28.5321C18.0389 27.0525 15.5968 27.0525 14.0906 28.5321C12.5844 30.0116 12.5844 32.4105 14.0906 33.8901C15.5968 35.3697 18.0389 35.3697 19.5452 33.8901C21.0514 32.4105 21.0514 30.0116 19.5452 28.5321Z" stroke="#666666" stroke-width="2" stroke-linecap="round" stroke-linejoin="round"/>
<path d="M4.27273 23.1743H3.18182M4.27273 26.3892H2.09091M4.27273 29.604H1" stroke="#666666" stroke-width="2" stroke-linecap="round" stroke-linejoin="round"/>
</svg>
